<svg xmlns="http://www.w3.org/2000/svg" width="512" height="512" viewBox="0 0 512 512">
  <defs>
    <linearGradient id="bg" x1="84" y1="48" x2="428" y2="464" gradientUnits="userSpaceOnUse">
      <stop stop-color="#ff765f"/>
      <stop offset="1" stop-color="#d92f20"/>
    </linearGradient>
    <filter id="shadow" x="-40%" y="-40%" width="180%" height="180%">
      <feDropShadow dx="0" dy="12" stdDeviation="14" flood-color="#6f140c" flood-opacity=".35"/>
    </filter>
  </defs>
  <rect width="512" height="512" rx="112" fill="#121419"/>
  <rect x="46" y="46" width="420" height="420" rx="94" fill="#ef503b"/>
  <path d="M132 244 256 139l124 105v120a26 26 0 0 1-26 26H158a26 26 0 0 1-26-26V244Z" fill="#fff" filter="url(#shadow)"/>
  <path d="m112 251 144-122 144 122" fill="none" stroke="#fff" stroke-width="34" stroke-linecap="round" stroke-linejoin="round"/>
  <rect x="222" y="271" width="68" height="119" rx="28" fill="#17191f"/>
  <circle cx="256" cy="302" r="14" fill="#fff"/>
  <path d="M180 287c-18 15-18 43 0 58M332 287c18 15 18 43 0 58" fill="none" stroke="#ef503b" stroke-width="16" stroke-linecap="round"/>
</svg>
